<svg width="42" height="50" viewBox="0 0 42 50" fill="none" xmlns="http://www.w3.org/2000/svg">
<path d="M27.7521 5.62535C29.0669 7.33056 30.4739 7.6628 31.7147 7.05335L27.9886 9.61924C27.9886 9.61924 25.6031 7.9182 25.188 6.25049C24.6959 4.27373 26.7064 1.27627 26.7064 1.27627C26.6027 2.09957 26.4434 3.92809 27.7521 5.62535Z" fill="#5E7381"/>
<path d="M20.5186 45.6204L19.8044 43.252L18.5041 43.0288L19.0015 45.36L17.5065 48.9211L19.2502 46.5255L21.3017 48.8989L20.4078 46.2751L24.3088 46.9448L20.5186 45.6204Z" fill="#303D4F"/>
<path d="M30.4796 44.7917L30.1886 42.7899L29.1539 42.4394L29.2725 44.3828L27.6116 47.0555L29.3318 45.3544L30.7146 47.5358L30.3083 45.3046L33.4123 46.3562L30.4796 44.7917Z" fill="#303D4F"/>
<path d="M30.5087 42.562C31.9562 41.8224 32.0912 38.7675 32.0912 38.7675L25.937 38.0776C25.937 38.0776 25.8201 41.7523 27.5195 42.562C28.5695 43.0623 29.4734 43.091 30.5087 42.562Z" fill="#5E7381"/>
<path d="M40.1647 12.633C40.1647 8.8669 37.843 7.53768 35.7535 6.87308C32.271 6.20846 29.2529 6.87308 25.306 10.1961C21.7828 13.1625 13.6977 20.9037 11.6082 25.9251C6.4232 25.6297 -5.72205e-05 22.159 -5.72205e-05 22.159C-5.72205e-05 22.159 2.19126 32.7327 11.6082 37.4136C18.02 40.6006 29.485 40.9895 34.3605 39.2172C41.3255 36.6853 43.6472 25.482 40.1647 19.9437C38.3074 15.956 40.1647 16.2477 40.1647 12.633Z" fill="#869DAA"/>
<path d="M20.439 42.9481C22.249 41.9987 22.4177 38.0777 22.4177 38.0777L14.7228 37.1921C14.7228 37.1921 14.5766 41.9088 16.7015 42.9481C18.0144 43.5902 19.1445 43.627 20.439 42.9481Z" fill="#869DAA"/>
<path d="M35.1691 18.3747L37.1478 15.7182C37.1478 14.1685 35.8824 13.283 34.2897 13.283C32.311 13.283 31.3583 14.6112 31.4316 15.7182L35.1691 18.3747Z" fill="#F0F0F0"/>
<path d="M27.2544 12.6188C27.2544 13.4746 27.9435 14.1684 28.7934 14.1684C29.6433 14.1684 30.3324 13.4746 30.3324 12.6188C30.3324 11.7629 29.6433 11.0691 28.7934 11.0691C27.9435 11.0691 27.2544 11.7629 27.2544 12.6188Z" fill="#142136"/>
<path d="M27.6941 11.9546C27.6941 12.1991 27.891 12.3974 28.1338 12.3974C28.3767 12.3974 28.5735 12.1991 28.5735 11.9546C28.5735 11.7101 28.3767 11.5118 28.1338 11.5118C27.891 11.5118 27.6941 11.7101 27.6941 11.9546Z" fill="white"/>
<path d="M38.247 13.5043C38.247 14.3601 38.7392 15.0539 39.3463 15.0539C39.9534 15.0539 40.4455 14.3601 40.4455 13.5043C40.4455 12.6484 39.9534 11.9546 39.3463 11.9546C38.7392 11.9546 38.247 12.6484 38.247 13.5043Z" fill="#142136"/>
<path d="M38.6282 12.6968C38.5844 12.8482 38.6561 13.0023 38.7883 13.0412C38.9206 13.08 39.0633 12.9887 39.1071 12.8373C39.151 12.686 39.0793 12.5318 38.947 12.4929C38.8148 12.4541 38.672 12.5454 38.6282 12.6968Z" fill="white"/>
<path d="M30.7721 4.47474C31.1466 5.31316 32.7507 6.42007 34.2897 6.8016L29.453 8.63389C29.453 8.63389 28.1477 6.19399 28.1339 4.47474C28.1176 2.4369 30.7721 0 30.7721 0C30.479 0.775621 29.8968 2.51504 30.7721 4.47474Z" fill="#869DAA"/>
</svg>
