<svg width="390" height="556" viewBox="0 0 390 556" fill="none" xmlns="http://www.w3.org/2000/svg">
<path d="M-42 363C-42 307.772 2.77153 263 58 263H317C372.228 263 417 307.772 417 363V648H-42V363Z" fill="#494949"/>
<path d="M133 132.364C133 101.235 158.235 76 189.364 76H200.636C231.765 76 257 101.235 257 132.364V254.109H133V132.364Z" fill="#C3C3C3"/>
<path d="M133 254.109H160.055V275.151H133V254.109Z" fill="#A6A6A6"/>
<path d="M229.945 254.109H257V275.151H229.945V254.109Z" fill="#A6A6A6"/>
<path d="M133 254.109H160.055L133 267.636V254.109Z" fill="#828282"/>
<path d="M229.945 254.109H257L229.945 267.636V254.109Z" fill="#828282"/>
<path d="M133 254.109H143.521V275.151H133V254.109Z" fill="#828282"/>
<path d="M229.945 254.109H240.467V275.151H229.945V254.109Z" fill="#828282"/>
<path fill-rule="evenodd" clip-rule="evenodd" d="M153.033 89.5273C144.754 99.3382 139.764 112.015 139.764 125.858V247.603H257V254.367H133V132.621C133 115.335 140.782 99.8665 153.033 89.5273Z" fill="#A6A6A6"/>
<path d="M143.521 159.418C143.521 155.267 146.886 151.903 151.036 151.903H241.218C245.369 151.903 248.733 155.267 248.733 159.418V236.073C248.733 240.223 245.369 243.588 241.218 243.588H151.036C146.886 243.588 143.521 240.223 143.521 236.073V159.418Z" fill="#E6E6E6"/>
<path d="M146.527 159.418C146.527 156.928 148.546 154.909 151.036 154.909H241.218C243.708 154.909 245.727 156.928 245.727 159.418V236.073C245.727 238.563 243.708 240.582 241.218 240.582H151.036C148.546 240.582 146.527 238.563 146.527 236.073V159.418Z" fill="#C4C4C4"/>
<path d="M197.63 160.545C197.63 161.998 196.453 163.176 195 163.176C193.547 163.176 192.37 161.998 192.37 160.545C192.37 159.093 193.547 157.915 195 157.915C196.453 157.915 197.63 159.093 197.63 160.545Z" fill="#323232"/>
<path d="M193.873 161.297C193.873 160.675 194.377 160.17 195 160.17V160.17C195.623 160.17 196.127 160.675 196.127 161.297V165.806C196.127 166.429 195.623 166.934 195 166.934V166.934C194.377 166.934 193.873 166.429 193.873 165.806V161.297Z" fill="#323232"/>
<path fill-rule="evenodd" clip-rule="evenodd" d="M151.412 162.424C151.412 162.217 151.58 162.048 151.788 162.048H186.358C186.565 162.048 186.733 162.217 186.733 162.424C186.733 162.632 186.565 162.8 186.358 162.8H151.788C151.58 162.8 151.412 162.632 151.412 162.424Z" fill="#EBEBEB"/>
<path fill-rule="evenodd" clip-rule="evenodd" d="M203.267 162.424C203.267 162.217 203.435 162.048 203.642 162.048H238.212C238.42 162.048 238.588 162.217 238.588 162.424C238.588 162.632 238.42 162.8 238.212 162.8H203.642C203.435 162.8 203.267 162.632 203.267 162.424Z" fill="#EBEBEB"/>
<path fill-rule="evenodd" clip-rule="evenodd" d="M151.412 232.312C151.414 232.104 151.584 231.937 151.791 231.939L238.215 232.691C238.423 232.693 238.59 232.862 238.588 233.07C238.586 233.277 238.416 233.444 238.209 233.442L151.785 232.691C151.577 232.689 151.41 232.519 151.412 232.312Z" fill="#EBEBEB"/>
<path fill-rule="evenodd" clip-rule="evenodd" d="M257.73 151.152V132.364C257.73 101.235 232.495 76 201.366 76H190.093C188.922 76 187.759 76.0357 186.606 76.1061C226.238 78.1993 257.73 110.998 257.73 151.152Z" fill="#CFCFCF"/>
<path d="M169.132 118.049C168.269 115.939 169.294 113.523 171.42 112.654L206.848 98.1695C208.974 97.3 211.398 98.3059 212.261 100.416L220.228 119.903C221.091 122.014 220.066 124.429 217.939 125.299L182.512 139.783C180.385 140.652 177.962 139.647 177.099 137.536L169.132 118.049Z" fill="#E6D9D2"/>
<path fill-rule="evenodd" clip-rule="evenodd" d="M207.316 99.3158L171.889 113.8C170.4 114.409 169.683 116.1 170.287 117.577L178.254 137.064C178.858 138.541 180.555 139.245 182.043 138.637L217.471 124.152C218.959 123.544 219.676 121.853 219.073 120.376L211.105 100.888C210.501 99.4113 208.805 98.7072 207.316 99.3158ZM171.42 112.654C169.294 113.523 168.269 115.939 169.132 118.049L177.099 137.536C177.962 139.647 180.385 140.652 182.512 139.783L217.939 125.299C220.066 124.429 221.091 122.014 220.228 119.903L212.261 100.416C211.398 98.3059 208.974 97.3 206.848 98.1695L171.42 112.654Z" fill="#DEC8C1"/>
<path fill-rule="evenodd" clip-rule="evenodd" d="M192.623 113.945L217.971 123.887C217.809 123.996 217.633 124.091 217.444 124.168L182.074 138.629C181.885 138.706 181.693 138.762 181.501 138.797L192.623 113.945ZM180.928 140.077C181.465 140.085 182.012 139.987 182.54 139.771L217.911 125.31C218.439 125.094 218.898 124.781 219.276 124.399C219.578 124.093 219.828 123.744 220.02 123.366L191.978 112.368L179.674 139.861C180.075 139.997 180.498 140.071 180.928 140.077Z" fill="#DEC8C1"/>
<path fill-rule="evenodd" clip-rule="evenodd" d="M169.34 114.586L197.382 125.585L209.686 98.091C208.783 97.786 207.77 97.7921 206.819 98.181L171.449 112.642C170.498 113.031 169.771 113.736 169.34 114.586Z" fill="#E6D9D2"/>
<path fill-rule="evenodd" clip-rule="evenodd" d="M196.737 124.007L171.389 114.065C171.551 113.956 171.727 113.861 171.916 113.784L207.286 99.3229C207.475 99.2458 207.667 99.1901 207.859 99.1548L196.737 124.007ZM208.432 97.875C207.895 97.8671 207.348 97.965 206.819 98.181L171.449 112.642C170.92 112.858 170.461 113.172 170.084 113.553C169.781 113.859 169.531 114.208 169.34 114.586L197.382 125.585L209.686 98.091C209.285 97.9554 208.862 97.8813 208.432 97.875Z" fill="#DEC8C1"/>
<path d="M158.552 128.606H233.703V147.394H158.552V128.606Z" fill="#C3C3C3"/>
<path d="M157.8 127.855C157.8 127.439 158.136 127.103 158.552 127.103H233.703C234.118 127.103 234.455 127.439 234.455 127.855V127.855C234.455 128.27 234.118 128.606 233.703 128.606H158.552C158.136 128.606 157.8 128.27 157.8 127.855V127.855Z" fill="#3F3F3F"/>
<path d="M188.938 9.54346C186.692 12.4364 184.289 13.0001 182.169 11.9661L188.534 16.3192C188.534 16.3192 192.609 13.4334 193.319 10.604C194.159 7.25038 190.725 2.16508 190.725 2.16508C190.902 3.56184 191.174 6.664 188.938 9.54346Z" fill="#5E7381"/>
<path d="M201.296 77.3969L202.516 73.3789L204.737 73.0002L203.887 76.955L206.441 82.9967L203.462 78.9325L199.958 82.9589L201.485 78.5076L194.821 79.6437L201.296 77.3969Z" fill="#303D4F"/>
<path d="M184.279 75.991L184.776 72.5949L186.543 72.0002L186.341 75.2972L189.178 79.8317L186.24 76.9457L183.877 80.6465L184.571 76.8612L179.269 78.6452L184.279 75.991Z" fill="#303D4F"/>
<path d="M184.229 72.208C181.756 70.9532 181.526 65.7705 181.526 65.7705L192.039 64.6001C192.039 64.6001 192.239 70.8343 189.336 72.208C187.542 73.0567 185.998 73.1054 184.229 72.208Z" fill="#5E7381"/>
<path d="M167.733 21.4324C167.733 15.0431 171.699 12.788 175.269 11.6605C181.218 10.5329 186.374 11.6605 193.117 17.2981C199.136 22.3308 212.948 35.4639 216.517 43.983C225.375 43.4819 236.348 37.5937 236.348 37.5937C236.348 37.5937 232.605 55.5323 216.517 63.4736C205.564 68.8805 185.978 69.5403 177.649 66.5336C165.75 62.2382 161.784 43.2312 167.733 33.8352C170.906 27.0701 167.733 27.565 167.733 21.4324Z" fill="#869DAA"/>
<path d="M201.432 72.8628C198.339 71.2522 198.051 64.6 198.051 64.6L211.197 63.0977C211.197 63.0977 211.446 71.0997 207.816 72.8628C205.574 73.9522 203.643 74.0147 201.432 72.8628Z" fill="#869DAA"/>
<path d="M176.267 31.1736L172.887 26.6666C172.887 24.0375 175.049 22.5352 177.77 22.5352C181.15 22.5352 182.778 24.7887 182.652 26.6666L176.267 31.1736Z" fill="#F0F0F0"/>
<path d="M189.788 21.4084C189.788 22.8604 188.611 24.0375 187.159 24.0375C185.707 24.0375 184.53 22.8604 184.53 21.4084C184.53 19.9564 185.707 18.7793 187.159 18.7793C188.611 18.7793 189.788 19.9564 189.788 21.4084Z" fill="#142136"/>
<path d="M189.037 20.2814C189.037 20.6963 188.701 21.0326 188.286 21.0326C187.871 21.0326 187.535 20.6963 187.535 20.2814C187.535 19.8666 187.871 19.5303 188.286 19.5303C188.701 19.5303 189.037 19.8666 189.037 20.2814Z" fill="white"/>
<path fill-rule="evenodd" clip-rule="evenodd" d="M188.286 20.9575C188.66 20.9575 188.962 20.6548 188.962 20.2814C188.962 19.9081 188.66 19.6054 188.286 19.6054C187.913 19.6054 187.61 19.9081 187.61 20.2814C187.61 20.6548 187.913 20.9575 188.286 20.9575ZM188.286 21.0326C188.701 21.0326 189.037 20.6963 189.037 20.2814C189.037 19.8666 188.701 19.5303 188.286 19.5303C187.871 19.5303 187.535 19.8666 187.535 20.2814C187.535 20.6963 187.871 21.0326 188.286 21.0326Z" fill="white"/>
<path d="M171.009 22.9103C171.009 24.3623 170.169 25.5394 169.131 25.5394C168.094 25.5394 167.253 24.3623 167.253 22.9103C167.253 21.4583 168.094 20.2812 169.131 20.2812C170.169 20.2812 171.009 21.4583 171.009 22.9103Z" fill="#142136"/>
<path d="M170.243 21.6789C170.359 22.0772 170.292 22.4471 170.093 22.5052C169.894 22.5632 169.638 22.2874 169.522 21.8891C169.406 21.4908 169.473 21.1209 169.672 21.0629C169.871 21.0048 170.127 21.2806 170.243 21.6789Z" fill="white"/>
<path fill-rule="evenodd" clip-rule="evenodd" d="M170.212 22.2062C170.237 22.0704 170.227 21.8903 170.171 21.6999C170.116 21.5096 170.028 21.3521 169.934 21.2508C169.837 21.1459 169.751 21.1182 169.693 21.135C169.636 21.1518 169.578 21.2211 169.553 21.3619C169.528 21.4977 169.539 21.6777 169.594 21.8681C169.65 22.0585 169.738 22.216 169.831 22.3172C169.929 22.4222 170.014 22.4498 170.072 22.4331C170.129 22.4163 170.187 22.3469 170.212 22.2062ZM170.093 22.5052C170.292 22.4471 170.359 22.0772 170.243 21.6789C170.127 21.2806 169.871 21.0048 169.672 21.0629C169.473 21.1209 169.406 21.4908 169.522 21.8891C169.638 22.2874 169.894 22.5632 170.093 22.5052Z" fill="white"/>
<path d="M183.779 7.59157C183.139 9.01399 180.399 10.8919 177.77 11.5392L186.033 14.6477C186.033 14.6477 188.263 10.5083 188.286 7.59157C188.314 4.13429 183.779 0 183.779 0C184.28 1.31587 185.274 4.26687 183.779 7.59157Z" fill="#869DAA"/>
<path d="M-3.40775 432L133 275H160L144.677 303.5H219.5L230 275H257L202 628.5H-15L-3.40775 432Z" fill="#2F2F2F"/>
</svg>
