<svg width="34" height="40" viewBox="0 0 34 40" fill="none" xmlns="http://www.w3.org/2000/svg">
<path d="M22.2017 4.50033C23.2536 5.8645 24.3792 6.13029 25.3718 5.64273L22.3909 7.69544C22.3909 7.69544 20.4826 6.33461 20.1505 5.00044C19.7568 3.41903 21.3652 1.02106 21.3652 1.02106C21.2823 1.67971 21.1548 3.14252 22.2017 4.50033Z" fill="#5E7381"/>
<path d="M16.4149 36.4963L15.8435 34.6016L14.8033 34.423L15.2012 36.2879L14.0052 39.1368L15.4002 37.2204L17.0414 39.1191L16.3262 37.02L19.4471 37.5558L16.4149 36.4963Z" fill="#303D4F"/>
<path d="M24.3837 35.8334L24.1509 34.2319L23.3232 33.9515L23.418 35.5062L22.0893 37.6444L23.4655 36.2836L24.5717 38.0286L24.2466 36.2437L26.7299 37.085L24.3837 35.8334Z" fill="#303D4F"/>
<path d="M24.407 34.0496C25.565 33.4579 25.673 31.0141 25.673 31.0141L20.7497 30.4622C20.7497 30.4622 20.6561 33.4019 22.0157 34.0496C22.8557 34.4499 23.5787 34.4728 24.407 34.0496Z" fill="#5E7381"/>
<path d="M32.1318 10.1064C32.1318 7.09357 30.2744 6.03019 28.6028 5.49851C25.8169 4.96682 23.4023 5.49851 20.2449 8.15694C17.4262 10.5301 10.9582 16.723 9.28662 20.7401C5.13858 20.5038 -2.28882e-05 17.7273 -2.28882e-05 17.7273C-2.28882e-05 17.7273 1.75303 26.1862 9.28662 29.9309C14.416 32.4805 23.5881 32.7917 27.4884 31.3738C33.0604 29.3483 34.9178 20.3856 32.1318 15.955C30.6459 12.7649 32.1318 12.9982 32.1318 10.1064Z" fill="#869DAA"/>
<path d="M16.3513 34.3584C17.7993 33.5989 17.9342 30.4621 17.9342 30.4621L11.7783 29.7537C11.7783 29.7537 11.6614 33.527 13.3613 34.3584C14.4116 34.8721 15.3157 34.9016 16.3513 34.3584Z" fill="#869DAA"/>
<path d="M28.1353 14.6996L29.7183 12.5744C29.7183 11.3346 28.7059 10.6262 27.4318 10.6262C25.8489 10.6262 25.0867 11.6889 25.1453 12.5744L28.1353 14.6996Z" fill="#F0F0F0"/>
<path d="M21.8035 10.095C21.8035 10.7797 22.3547 11.3347 23.0347 11.3347C23.7147 11.3347 24.2659 10.7797 24.2659 10.095C24.2659 9.41027 23.7147 8.85522 23.0347 8.85522C22.3547 8.85522 21.8035 9.41027 21.8035 10.095Z" fill="#142136"/>
<path d="M22.1554 9.56368C22.1554 9.75931 22.3128 9.91789 22.5071 9.91789C22.7014 9.91789 22.8589 9.75931 22.8589 9.56368C22.8589 9.36806 22.7014 9.20947 22.5071 9.20947C22.3128 9.20947 22.1554 9.36806 22.1554 9.56368Z" fill="white"/>
<path d="M30.5976 10.8035C30.5976 11.4881 30.9914 12.0432 31.477 12.0432C31.9627 12.0432 32.3564 11.4881 32.3564 10.8035C32.3564 10.1188 31.9627 9.56372 31.477 9.56372C30.9914 9.56372 30.5976 10.1188 30.5976 10.8035Z" fill="#142136"/>
<path d="M30.9026 10.1574C30.8676 10.2785 30.9249 10.4018 31.0307 10.4329C31.1365 10.4639 31.2507 10.3909 31.2858 10.2698C31.3208 10.1487 31.2635 10.0254 31.1577 9.99431C31.0519 9.96325 30.9377 10.0363 30.9026 10.1574Z" fill="white"/>
<path d="M24.6177 3.57979C24.9173 4.25053 26.2006 5.13606 27.4318 5.44128L23.5624 6.90711C23.5624 6.90711 22.5181 4.95519 22.5071 3.57979C22.4941 1.94952 24.6177 0 24.6177 0C24.3832 0.620497 23.9175 2.01204 24.6177 3.57979Z" fill="#869DAA"/>
</svg>
