<svg width="34" height="46" viewBox="0 0 34 46" fill="none" xmlns="http://www.w3.org/2000/svg">
<mask id="mask0_386_1705" style="mask-type:alpha" maskUnits="userSpaceOnUse" x="1" y="13" width="32" height="33">
<path d="M17 45.5C25.5757 45.5 32.5 38.321 32.5 29.5C32.5 20.679 25.5757 13.5 17 13.5C8.42426 13.5 1.5 20.679 1.5 29.5C1.5 38.321 8.42426 45.5 17 45.5Z" fill="#D9D9D9" stroke="black"/>
</mask>
<g mask="url(#mask0_386_1705)">
<path d="M19.4335 20.0755C17.9853 21.9171 16.4357 22.2759 15.0691 21.6177L19.173 24.3889C19.173 24.3889 21.8004 22.5518 22.2576 20.7506C22.7996 18.6157 20.5853 15.3785 20.5853 15.3785C20.6994 16.2676 20.8749 18.2424 19.4335 20.0755Z" fill="#5E7381"/>
<path d="M5.76222 27.6437C5.76222 23.5763 8.31931 22.1407 10.6207 21.423C14.4563 20.7052 17.7806 21.423 22.1276 25.0119C26.0082 28.2156 34.9131 36.576 37.2145 41.9992C42.9254 41.6802 50 37.9318 50 37.9318C50 37.9318 47.5865 49.3513 37.2145 54.4067C30.1526 57.8487 17.5249 58.2687 12.155 56.3546C4.48367 53.6202 1.92657 41.5206 5.76222 35.5392C7.80789 31.2326 5.76222 31.5476 5.76222 27.6437Z" fill="#869DAA"/>
<path d="M11.2644 33.8446L9.08508 30.9755C9.08508 29.3018 10.4788 28.3455 12.233 28.3455C14.4123 28.3455 15.4616 29.78 15.3809 30.9755L11.2644 33.8446Z" fill="#F0F0F0"/>
<path d="M19.9817 27.6282C19.9817 28.5526 19.2228 29.3019 18.2866 29.3019C17.3505 29.3019 16.5916 28.5526 16.5916 27.6282C16.5916 26.7039 17.3505 25.9546 18.2866 25.9546C19.2228 25.9546 19.9817 26.7039 19.9817 27.6282Z" fill="#142136"/>
<path d="M19.4974 26.911C19.4974 27.1751 19.2806 27.3892 19.0131 27.3892C18.7456 27.3892 18.5288 27.1751 18.5288 26.911C18.5288 26.647 18.7456 26.4329 19.0131 26.4329C19.2806 26.4329 19.4974 26.647 19.4974 26.911Z" fill="white"/>
<path d="M7.87435 28.5845C7.87435 29.5089 7.33229 30.2582 6.66362 30.2582C5.99495 30.2582 5.45288 29.5089 5.45288 28.5845C5.45288 27.6602 5.99495 26.9109 6.66362 26.9109C7.33229 26.9109 7.87435 27.6602 7.87435 28.5845Z" fill="#142136"/>
<path d="M7.4545 27.7126C7.50276 27.8761 7.4238 28.0426 7.27814 28.0845C7.13247 28.1264 6.97526 28.0279 6.92699 27.8644C6.87873 27.7009 6.95769 27.5344 7.10335 27.4924C7.24902 27.4505 7.40623 27.5491 7.4545 27.7126Z" fill="white"/>
<path d="M16.1073 18.8327C15.6948 19.7382 13.928 20.9337 12.233 21.3457L17.5602 23.3246C17.5602 23.3246 18.9979 20.6895 19.013 18.8327C19.0309 16.6318 16.1073 14 16.1073 14C16.4301 14.8377 17.0713 16.7162 16.1073 18.8327Z" fill="#869DAA"/>
<path d="M32.5 29.5C32.5 38.3512 25.546 45.5 17 45.5C8.45398 45.5 1.5 38.3512 1.5 29.5C1.5 20.6488 8.45398 13.5 17 13.5C25.546 13.5 32.5 20.6488 32.5 29.5Z" stroke="#A9A9A9"/>
<rect x="20.6535" y="22" width="3" height="11" transform="rotate(25.027 20.6535 22)" fill="white" fill-opacity="0.2"/>
<rect x="24.6535" y="23" width="1.45663" height="11" transform="rotate(25.027 24.6535 23)" fill="white" fill-opacity="0.2"/>
<circle cx="20.5" cy="27.5" r="5.75" fill="white" fill-opacity="0.25" stroke="#5B5B5B" stroke-width="1.5"/>
<path d="M25 32L28.5 35.5" stroke="#5B5B5B" stroke-width="1.5" stroke-linecap="round"/>
</g>
</svg>
