<svg width="46" height="54" viewBox="0 0 46 54" fill="none" xmlns="http://www.w3.org/2000/svg">
<path d="M30.5664 6.07523C32.0146 7.91687 33.5642 8.27569 34.9309 7.61747L30.8269 10.3886C30.8269 10.3886 28.1995 8.55152 27.7423 6.75039C27.2004 4.61549 29.4147 1.37823 29.4147 1.37823C29.3005 2.26739 29.125 4.2422 30.5664 6.07523Z" fill="#5E7381"/>
<path d="M22.5994 49.2699L21.8128 46.7121L20.3806 46.471L20.9285 48.9887L19.2819 52.8347L21.2024 50.2475L23.4619 52.8107L22.4773 49.977L26.774 50.7002L22.5994 49.2699Z" fill="#303D4F"/>
<path d="M33.5706 48.3748L33.2501 46.2129L32.1105 45.8343L32.2411 47.9331L30.4118 50.8197L32.3064 48.9826L33.8295 51.3384L33.3819 48.9287L36.8008 50.0645L33.5706 48.3748Z" fill="#303D4F"/>
<path d="M33.6025 45.9671C35.1969 45.1683 35.3455 41.8691 35.3455 41.8691L28.5672 41.124C28.5672 41.124 28.4384 45.0927 30.3102 45.9671C31.4667 46.5074 32.4622 46.5384 33.6025 45.9671Z" fill="#5E7381"/>
<path d="M44.2378 13.6437C44.2378 9.57631 41.6807 8.14075 39.3793 7.42298C35.5437 6.70519 32.2194 7.42298 27.8724 11.0119C23.9918 14.2156 15.0869 22.576 12.7855 27.9992C7.07463 27.6802 0 23.9318 0 23.9318C0 23.9318 2.41354 35.3513 12.7855 40.4067C19.8474 43.8487 32.4751 44.2687 37.845 42.3546C45.5163 39.6202 48.0734 27.5206 44.2378 21.5392C42.1921 17.2326 44.2378 17.5476 44.2378 13.6437Z" fill="#869DAA"/>
<path d="M22.5118 46.3839C24.5054 45.3586 24.6912 41.1238 24.6912 41.1238L16.216 40.1675C16.216 40.1675 16.055 45.2615 18.3953 46.3839C19.8414 47.0774 21.0861 47.1172 22.5118 46.3839Z" fill="#869DAA"/>
<path d="M38.7357 19.8448L40.915 16.9757C40.915 15.3021 39.5213 14.3457 37.7671 14.3457C35.5878 14.3457 34.5385 15.7803 34.6192 16.9757L38.7357 19.8448Z" fill="#F0F0F0"/>
<path d="M30.0184 13.6282C30.0184 14.5526 30.7773 15.3019 31.7134 15.3019C32.6496 15.3019 33.4084 14.5526 33.4084 13.6282C33.4084 12.7039 32.6496 11.9546 31.7134 11.9546C30.7773 11.9546 30.0184 12.7039 30.0184 13.6282Z" fill="#142136"/>
<path d="M30.5026 12.9108C30.5026 13.1749 30.7194 13.389 30.9869 13.389C31.2544 13.389 31.4712 13.1749 31.4712 12.9108C31.4712 12.6467 31.2544 12.4326 30.9869 12.4326C30.7194 12.4326 30.5026 12.6467 30.5026 12.9108Z" fill="white"/>
<path d="M42.1256 14.5848C42.1256 15.5091 42.6677 16.2584 43.3364 16.2584C44.0051 16.2584 44.5471 15.5091 44.5471 14.5848C44.5471 13.6604 44.0051 12.9111 43.3364 12.9111C42.6677 12.9111 42.1256 13.6604 42.1256 14.5848Z" fill="#142136"/>
<path d="M42.5455 13.7126C42.4972 13.8761 42.5762 14.0426 42.7219 14.0845C42.8675 14.1264 43.0247 14.0279 43.073 13.8644C43.1213 13.7009 43.0423 13.5344 42.8966 13.4924C42.751 13.4505 42.5938 13.5491 42.5455 13.7126Z" fill="white"/>
<path d="M33.8928 4.83272C34.3052 5.73822 36.0721 6.93368 37.7671 7.34573L32.4399 9.3246C32.4399 9.3246 31.0022 6.68951 30.9871 4.83272C30.9691 2.63185 33.8928 0 33.8928 0C33.5699 0.837671 32.9287 2.71625 33.8928 4.83272Z" fill="#869DAA"/>
<rect width="3" height="11" transform="matrix(-0.906108 0.423046 0.423046 0.906108 29.3464 8)" fill="white" fill-opacity="0.2"/>
<rect width="1.45663" height="11" transform="matrix(-0.906108 0.423046 0.423046 0.906108 25.3464 9)" fill="white" fill-opacity="0.2"/>
<circle cx="6.5" cy="6.5" r="5.75" transform="matrix(-1 0 0 1 36 7)" fill="white" fill-opacity="0.25" stroke="#5B5B5B" stroke-width="1.5"/>
<path d="M25 18L21.5 21.5" stroke="#5B5B5B" stroke-width="1.5" stroke-linecap="round"/>
</svg>
