<svg width="23" height="23" viewBox="0 0 23 23" fill="none" xmlns="http://www.w3.org/2000/svg">
<circle cx="11.5" cy="11.5" r="11.5" fill="black" fill-opacity="0.1"/>
<path fill-rule="evenodd" clip-rule="evenodd" d="M5.80815 15.7084C5.37321 16.1627 5.43803 16.842 5.95292 17.2258C6.46782 17.6095 7.23781 17.5524 7.67275 17.0981L11.5 13.1004L15.3273 17.0981C15.7622 17.5524 16.5322 17.6096 17.0471 17.2258C17.562 16.842 17.6268 16.1627 17.1919 15.7084L13.0976 11.4318L17.0612 7.29168C17.4962 6.83738 17.4314 6.158 16.9165 5.77424C16.4016 5.39049 15.6316 5.44767 15.1966 5.90198L11.5001 9.7631L7.80353 5.90198C7.36859 5.44768 6.5986 5.39049 6.0837 5.77424C5.5688 6.15799 5.50398 6.83737 5.93892 7.29168L9.90251 11.4317L5.80815 15.7084Z" fill="black" fill-opacity="0.5"/>
</svg>
