<svg width="71" height="85" viewBox="0 0 71 85" fill="none" xmlns="http://www.w3.org/2000/svg">
<path d="M47.1786 9.5631C49.4138 12.462 51.8056 13.0268 53.915 11.9907L47.5806 16.3527C47.5806 16.3527 43.5254 13.461 42.8197 10.6258C41.9832 7.26535 45.4009 2.16967 45.4009 2.16967C45.2247 3.56928 44.9539 6.67777 47.1786 9.5631Z" fill="#5E7381"/>
<path d="M34.8817 77.5546L33.6676 73.5284L31.457 73.149L32.3027 77.1119L29.7612 83.1659L32.7255 79.0934L36.213 83.1281L34.6933 78.6676L41.3251 79.8061L34.8817 77.5546Z" fill="#303D4F"/>
<path d="M51.8155 76.1459L51.3207 72.7428L49.5618 72.1469L49.7633 75.4507L46.9398 79.9944L49.8641 77.1025L52.2149 80.8108L51.5241 77.0178L56.8011 78.8055L51.8155 76.1459Z" fill="#303D4F"/>
<path d="M51.8648 72.3555C54.3257 71.0981 54.5551 65.9049 54.5551 65.9049L44.093 64.7321C44.093 64.7321 43.8942 70.979 46.7832 72.3555C48.5683 73.2059 50.1048 73.2547 51.8648 72.3555Z" fill="#5E7381"/>
<path d="M68.2801 21.476C68.2801 15.0737 64.3332 12.814 60.7811 11.6842C54.8609 10.5543 49.73 11.6842 43.0204 17.3333C37.0308 22.3763 23.2863 35.5362 19.7341 44.0727C10.9195 43.5705 0 37.6703 0 37.6703C0 37.6703 3.72523 55.6455 19.7341 63.603C30.634 69.021 50.1247 69.6821 58.413 66.6692C70.2535 62.365 74.2003 43.3193 68.2801 33.9042C65.1226 27.1252 68.2801 27.6211 68.2801 21.476Z" fill="#869DAA"/>
<path d="M34.7464 73.0117C37.8233 71.3978 38.1101 64.732 38.1101 64.732L25.0289 63.2266C25.0289 63.2266 24.7804 71.245 28.3926 73.0117C30.6246 74.1033 32.5457 74.166 34.7464 73.0117Z" fill="#869DAA"/>
<path d="M59.7875 31.237L63.1512 26.7208C63.1512 24.0863 61.0001 22.5809 58.2925 22.5809C54.9288 22.5809 53.3092 24.839 53.4338 26.7208L59.7875 31.237Z" fill="#F0F0F0"/>
<path d="M46.3326 21.4519C46.3326 22.9068 47.5039 24.0863 48.9488 24.0863C50.3937 24.0863 51.5651 22.9068 51.5651 21.4519C51.5651 19.9969 50.3937 18.8174 48.9488 18.8174C47.5039 18.8174 46.3326 19.9969 46.3326 21.4519Z" fill="#142136"/>
<path d="M47.0802 20.3228C47.0802 20.7385 47.4149 21.0755 47.8277 21.0755C48.2405 21.0755 48.5752 20.7385 48.5752 20.3228C48.5752 19.9071 48.2405 19.5701 47.8277 19.5701C47.4149 19.5701 47.0802 19.9071 47.0802 20.3228Z" fill="white"/>
<path d="M65.02 22.9573C65.02 24.4122 65.8566 25.5917 66.8887 25.5917C67.9208 25.5917 68.7574 24.4122 68.7574 22.9573C68.7574 21.5023 67.9208 20.3228 66.8887 20.3228C65.8566 20.3228 65.02 21.5023 65.02 22.9573Z" fill="#142136"/>
<path d="M65.668 21.5844C65.5935 21.8418 65.7154 22.1039 65.9402 22.1699C66.165 22.2359 66.4077 22.0808 66.4822 21.8234C66.5567 21.566 66.4348 21.3039 66.21 21.2379C65.9851 21.1719 65.7425 21.3271 65.668 21.5844Z" fill="white"/>
<path d="M52.3127 7.60706C52.9493 9.03238 55.6764 10.9141 58.2926 11.5627L50.0701 14.6776C50.0701 14.6776 47.8511 10.5298 47.8278 7.60706C47.8001 4.14272 52.3127 0 52.3127 0C51.8144 1.31856 50.8247 4.27558 52.3127 7.60706Z" fill="#869DAA"/>
</svg>
