<svg width="217" height="137" viewBox="0 0 217 137" fill="none" xmlns="http://www.w3.org/2000/svg">
<path d="M0.0293057 19.4159C0.0324792 8.77537 8.70836 0.152126 19.4074 0.155331L197.633 0.208727C208.332 0.211933 217.003 8.84038 217 19.4809L216.971 117.739C216.968 128.38 208.292 137.003 197.593 137L19.3666 136.947C8.66757 136.943 -0.00317259 128.315 8.70827e-07 117.674L0.0293057 19.4159Z" fill="#E6D9D2"/>
<path fill-rule="evenodd" clip-rule="evenodd" d="M197.632 5.98864L19.4057 5.93524C11.9164 5.933 5.84324 11.9693 5.84102 19.4176L5.81172 117.676C5.80949 125.125 11.879 131.164 19.3684 131.167L197.594 131.22C205.084 131.222 211.157 125.186 211.159 117.738L211.188 19.4792C211.191 12.0308 205.121 5.99088 197.632 5.98864ZM19.4074 0.155331C8.70836 0.152126 0.0324792 8.77537 0.0293057 19.4159L8.70827e-07 117.674C-0.00317259 128.315 8.66757 136.943 19.3666 136.947L197.593 137C208.292 137.003 216.968 128.38 216.971 117.739L217 19.4809C217.003 8.84038 208.332 0.211933 197.633 0.208727L19.4074 0.155331Z" fill="#DEC8C1"/>
<path d="M200.218 130.957L108.508 43.2106L15.7892 130.69C14.0166 130.295 12.5534 129.616 11.0622 128.321L108.51 35.256L205.855 128.518C203.885 130.098 202.704 130.492 200.218 130.957Z" fill="#DEC8C1"/>
<path fill-rule="evenodd" clip-rule="evenodd" d="M7.19812 4.67113L108.655 101.743L210.171 4.73194C206.817 1.81823 202.442 0.0547454 197.657 0.0533117L19.7151 8.74832e-07C14.9297 -0.00143283 10.554 1.75943 7.19812 4.67113Z" fill="#E6D9D2"/>
<path fill-rule="evenodd" clip-rule="evenodd" d="M108.493 93.9439L16.7823 6.19769C17.6742 6.0106 18.5991 5.91248 19.5481 5.91277L197.489 5.96608C198.438 5.96636 199.363 6.06504 200.255 6.25266L108.493 93.9439ZM204.98 1.73689C202.68 0.753727 200.149 0.209332 197.491 0.208535L19.5498 0.155225C16.8918 0.154428 14.3602 0.697306 12.0596 1.67909C10.2182 2.4649 8.52472 3.5319 7.0328 4.82636L108.49 101.898L210.005 4.88717C208.514 3.59182 206.821 2.52381 204.98 1.73689Z" fill="#DEC8C1"/>
</svg>
